nColumns=28
nRows=39
DataType=double
version=3
OpenSimVersion=4.1
endheader
time	ground_force_1_vx	ground_force_1_vy	ground_force_1_vz	ground_force_1_px	ground_force_1_py	ground_force_1_pz	ground_force_1_mx	ground_force_1_my	ground_force_1_mz	ground_force_2_vx	ground_force_2_vy	ground_force_2_vz	ground_force_2_px	ground_force_2_py	ground_force_2_pz	ground_force_2_mx	ground_force_2_my	ground_force_2_mz	ground_force_3_vx	ground_force_3_vy	ground_force_3_vz	ground_force_3_px	ground_force_3_py	ground_force_3_pz	ground_force_3_mx	ground_force_3_my	ground_force_3_mz
9.9	-1.26916	399.291	-17.5703	-0.23025	0.006	-0.453509	0	-1.52604	0	0.29998	120.8	19.1192	-0.210603	0.006	-0.773114	0	-0.001764	0	0	0	0	0	0	0	0	0	0
9.91	-0.659993	393.384	-17.6367	-0.23085	0.006	-0.453423	0	-1.45382	0	0.45823	120.542	19.3955	-0.211641	0.006	-0.773418	0	-0.015235	0	0	0	0	0	0	0	0	0	0
9.92	-0.14204	387.734	-17.691	-0.231487	0.006	-0.45336	0	-1.38465	0	0.598532	120.352	19.7145	-0.212709	0.006	-0.77373	0	-0.024381	0	0	0	0	0	0	0	0	0	0
9.93	0.275219	382.356	-17.7273	-0.232166	0.006	-0.453322	0	-1.31909	0	0.717214	120.231	20.0719	-0.213803	0.006	-0.774046	0	-0.02932	0	0	0	0	0	0	0	0	0	0
9.94	0.5895	377.266	-17.7403	-0.232893	0.006	-0.453312	0	-1.25733	0	0.812439	120.175	20.4598	-0.214919	0.006	-0.774362	0	-0.030371	0	0	0	0	0	0	0	0	0	0
9.95	0.806138	372.477	-17.7254	-0.233675	0.006	-0.453333	0	-1.19927	0	0.884067	120.179	20.8662	-0.216052	0.006	-0.77467	0	-0.028031	0	0	0	0	0	0	0	0	0	0
9.96	0.937945	368.005	-17.6787	-0.234522	0.006	-0.453384	0	-1.14474	0	0.933276	120.231	21.2763	-0.217197	0.006	-0.774959	0	-0.022838	0	0	0	0	0	0	0	0	0	0
9.97	1.00365	363.865	-17.5984	-0.235445	0.006	-0.453466	0	-1.09359	0	0.962072	120.32	21.6719	-0.218348	0.006	-0.775213	0	-0.015422	0	0	0	0	0	0	0	0	0	0
9.98	1.02415	360.078	-17.4856	-0.236454	0.006	-0.453579	0	-1.04578	0	0.972764	120.433	22.0339	-0.219498	0.006	-0.775418	0	-0.006394	0	0	0	0	0	0	0	0	0	0
9.99	1.01976	356.678	-17.3445	-0.237557	0.006	-0.453721	0	-1.0013	0	0.967374	120.566	22.344	-0.220642	0.006	-0.775558	0	0.003712	0	0	0	0	0	0	0	0	0	0
10	1.0097	353.714	-17.1819	-0.238758	0.006	-0.45389	0	-0.960324	0	0.947616	120.725	22.5861	-0.221774	0.006	-0.77562	0	0.014438	0	0	0	0	0	0	0	0	0	0
10.01	1.01245	351.25	-17.0075	-0.240057	0.006	-0.454083	0	-0.923284	0	0.915317	120.927	22.7484	-0.222896	0.006	-0.775594	0	0.025344	0	0	0	0	0	0	0	0	0	0
10.02	1.04511	349.359	-16.8336	-0.241448	0.006	-0.454293	0	-0.890642	0	0.872576	121.203	22.824	-0.224016	0.006	-0.775469	0	0.036142	0	0	0	0	0	0	0	0	0	0
10.03	1.12212	348.118	-16.6743	-0.242922	0.006	-0.454518	0	-0.862816	0	0.822038	121.594	22.8113	-0.225147	0.006	-0.775241	0	0.046632	0	0	0	0	0	0	0	0	0	0
10.04	1.25459	347.603	-16.542	-0.244461	0.006	-0.454751	0	-0.840179	0	0.767938	122.145	22.7141	-0.226302	0.006	-0.774906	0	0.056568	0	0	0	0	0	0	0	0	0	0
10.05	1.45037	347.877	-16.4465	-0.24604	0.006	-0.454988	0	-0.823117	0	0.716448	122.897	22.5406	-0.227487	0.006	-0.77447	0	0.065702	0	0	0	0	0	0	0	0	0	0
10.06	1.71306	348.997	-16.3952	-0.247634	0.006	-0.455224	0	-0.812162	0	0.67456	123.875	22.3042	-0.228701	0.006	-0.773946	0	0.07383	0	0	0	0	0	0	0	0	0	0
10.07	2.04025	351.005	-16.3935	-0.249211	0.006	-0.455454	0	-0.808027	0	0.648564	125.081	22.0215	-0.229936	0.006	-0.773349	0	0.080851	0	0	0	0	0	0	0	0	0	0
10.08	2.42406	353.926	-16.4452	-0.250738	0.006	-0.455671	0	-0.811611	0	0.642335	126.493	21.7118	-0.231177	0.006	-0.772703	0	0.086916	0	0	0	0	0	0	0	0	0	0
10.09	2.85161	357.76	-16.5543	-0.252183	0.006	-0.455869	0	-0.824008	0	0.656697	128.064	21.3963	-0.232401	0.006	-0.772033	0	0.092568	0	0	0	0	0	0	0	0	0	0
10.1	3.3056	362.474	-16.726	-0.25352	0.006	-0.456041	0	-0.846375	0	0.689395	129.735	21.0966	-0.233581	0.006	-0.771367	0	0.098721	0	0	0	0	0	0	0	0	0	0
10.11	3.76535	368.004	-16.968	-0.254723	0.006	-0.456183	0	-0.879754	0	0.73546	131.439	20.8335	-0.234687	0.006	-0.770729	0	0.106588	0	0	0	0	0	0	0	0	0	0
10.12	4.20746	374.251	-17.2898	-0.255777	0.006	-0.456289	0	-0.924916	0	0.788551	133.108	20.6262	-0.235691	0.006	-0.77014	0	0.117437	0	0	0	0	0	0	0	0	0	0
10.13	4.60802	381.087	-17.7009	-0.256667	0.006	-0.456357	0	-0.982142	0	0.842611	134.675	20.4897	-0.236568	0.006	-0.769617	0	0.132589	0	0	0	0	0	0	0	0	0	0
10.14	4.94466	388.352	-18.2071	-0.257388	0.006	-0.456386	0	-1.0509	0	0.892798	136.084	20.4336	-0.237298	0.006	-0.769171	0	0.15339	0	0	0	0	0	0	0	0	0	0
10.15	5.19648	395.867	-18.8078	-0.257935	0.006	-0.456375	0	-1.1296	0	0.935842	137.288	20.4611	-0.237868	0.006	-0.768807	0	0.18086	0	0	0	0	0	0	0	0	0	0
10.16	5.34539	403.435	-19.4932	-0.25831	0.006	-0.456326	0	-1.21566	0	0.969724	138.259	20.5697	-0.238269	0.006	-0.768529	0	0.215472	0	0	0	0	0	0	0	0	0	0
10.17	5.37957	410.844	-20.2436	-0.258516	0.006	-0.456242	0	-1.30571	0	0.993915	138.992	20.752	-0.238499	0.006	-0.768336	0	0.257206	0	0	0	0	0	0	0	0	0	0
10.18	5.29526	417.89	-21.03	-0.258562	0.006	-0.456127	0	-1.39596	0	1.00962	139.506	20.9977	-0.23856	0.006	-0.768222	0	0.305645	0	0	0	0	0	0	0	0	0	0
10.19	5.09679	424.394	-21.818	-0.258457	0.006	-0.455989	0	-1.48254	0	1.01967	139.848	21.2953	-0.238463	0.006	-0.76818	0	0.360037	0	0	0	0	0	0	0	0	0	0
10.2	4.79654	430.219	-22.574	-0.258213	0.006	-0.455832	0	-1.562	0	1.02843	140.083	21.6342	-0.23822	0.006	-0.768205	0	0.419508	0	0	0	0	0	0	0	0	0	0
10.21	4.41432	435.281	-23.2687	-0.257843	0.006	-0.455663	0	-1.63174	0	1.04146	140.289	22.0055	-0.237853	0.006	-0.768287	0	0.483155	0	0	0	0	0	0	0	0	0	0
10.22	3.97659	439.56	-23.8804	-0.257363	0.006	-0.455486	0	-1.69028	0	1.06482	140.547	22.4029	-0.237386	0.006	-0.768419	0	0.550024	0	0	0	0	0	0	0	0	0	0
10.23	3.51424	443.098	-24.3968	-0.256789	0.006	-0.455304	0	-1.73721	0	1.10414	140.935	22.8228	-0.236845	0.006	-0.768592	0	0.619069	0	0	0	0	0	0	0	0	0	0
10.24	3.06027	445.998	-24.815	-0.256141	0.006	-0.455121	0	-1.77307	0	1.16367	141.514	23.2639	-0.23626	0.006	-0.7688	0	0.689112	0	0	0	0	0	0	0	0	0	0
10.25	2.64589	448.412	-25.1409	-0.255437	0.006	-0.454937	0	-1.79917	0	1.24599	142.329	23.7278	-0.235662	0.006	-0.769038	0	0.759038	0	0	0	0	0	0	0	0	0	0
10.26	2.29579	450.52	-25.3882	-0.254696	0.006	-0.454752	0	-1.81748	0	1.35134	143.4	24.2179	-0.235075	0.006	-0.769302	0	0.827854	0	0	0	0	0	0	0	0	0	0
10.27	2.02529	452.509	-25.5757	-0.253932	0.006	-0.454566	0	-1.83025	0	1.47653	144.719	24.7391	-0.234519	0.006	-0.769589	0	0.894694	0	0	0	0	0	0	0	0	0	0
10.28	1.83891	454.549	-25.7258	-0.253156	0.006	-0.454378	0	-1.83974	0	1.61526	146.251	25.2961	-0.233999	0.006	-0.769896	0	0.958736	0	0	0	0	0	0	0	0	0	0
